<svg xmlns="http://www.w3.org/2000/svg" width="33.956" height="39.488" viewBox="0 0 33.956 39.488">
  <g id="Group_836" data-name="Group 836" transform="translate(-443 -473)">
    <g id="Group_834" data-name="Group 834" transform="translate(-181 -185)">
      <path id="Path_706" data-name="Path 706" d="M86.868,41.364l-6.1,16.752,4.008,11.012L94.884,41.364Z" transform="translate(563.071 626.798)" fill="#fff"/>
      <path id="Path_707" data-name="Path 707" d="M18.528,28.883l-.4-1.1-.034-.094L11.237,8.85,8.016,0H0L3.221,8.85l.433,1.19h0l6.858,18.843L14.121,38.8l.251.69h8.016l-3.561-9.783Z" transform="translate(624 658)" fill="#fff"/>
    </g>
    <g id="Group_835" data-name="Group 835" transform="translate(46.272 3.796)">
      <path id="Path_708" data-name="Path 708" d="M568.154,134.837l-2.378,5.509h1.507l.47-1.155h1.927l.489,1.155h1.488l-2.359-5.509Zm-.1,3.131.666-1.429.646,1.429Z" transform="translate(-143.165 336.983)" fill="#fff"/>
      <rect id="Rectangle_3966" data-name="Rectangle 3966" width="1.409" height="5.509" transform="translate(429.275 471.82)" fill="#fff"/>
    </g>
  </g>
</svg>
