<svg id="Component_87_3" data-name="Component 87 – 3" xmlns="http://www.w3.org/2000/svg" width="55.581" height="54" viewBox="0 0 55.581 54">
  <rect id="Rectangle_3957" data-name="Rectangle 3957" width="55.581" height="54" rx="27" fill="#0c285b"/>
  <path id="Icon_fa-solid-microphone" data-name="Icon fa-solid-microphone" d="M10.814,0A5.287,5.287,0,0,0,5.529,5.285v8.809a5.285,5.285,0,0,0,10.57,0V5.285A5.287,5.287,0,0,0,10.814,0ZM3.768,11.892a1.321,1.321,0,0,0-2.643,0v2.2a9.693,9.693,0,0,0,8.368,9.6v1.85H6.851a1.321,1.321,0,0,0,0,2.643h7.928a1.321,1.321,0,0,0,0-2.643H12.136V23.7a9.693,9.693,0,0,0,8.368-9.6v-2.2a1.321,1.321,0,0,0-2.643,0v2.2a7.047,7.047,0,0,1-14.094,0Z" transform="translate(16.976 12.906)" fill="#fff"/>
</svg>
